PathFileType	4	(X/Y/Z)	T1_P2_Vision_NoMovement_0_0-733.trc
DataRate	CameraRate	NumFrames	NumMarkers	Units	OrigDataRate	OrigDataStartFrame	OrigNumFrames
60	60	5	27	m	60	458	733
Frame#	Time	RHip			RKnee			RAnkle			RBigToe			RSmallToe			RHeel			LHip			LKnee			LAnkle			LBigToe			LSmallToe			LHeel			Neck			Head			Nose			RShoulder			RElbow			RWrist			RThumb			RIndex			RPinky			LShoulder			LElbow			LWrist			LThumb			LIndex			LPinky		
		X1	Y1	Z1	X2	Y2	Z2	X3	Y3	Z3	X4	Y4	Z4	X5	Y5	Z5	X6	Y6	Z6	X7	Y7	Z7	X8	Y8	Z8	X9	Y9	Z9	X10	Y10	Z10	X11	Y11	Z11	X12	Y12	Z12	X13	Y13	Z13	X14	Y14	Z14	X15	Y15	Z15	X16	Y16	Z16	X17	Y17	Z17	X18	Y18	Z18	X19	Y19	Z19	X20	Y20	Z20	X21	Y21	Z21	X22	Y22	Z22	X23	Y23	Z23	X24	Y24	Z24	X25	Y25	Z25	X26	Y26	Z26	X27	Y27	Z27
459	7.65	448.67194565672656	3711.8001151396356	638.8966580306634	847.5643624297005	3748.328801749334	650.8275127736473	1211.473139617401	3722.6327732740438	659.0652614576467	1292.1399217714352	3642.049840494169	649.8383261876811	1286.1877806864013	3690.8714492466065	606.650394424431	1285.397875400817	3812.1397889320033	740.6484026438008	464.97828447550285	3631.559993232833	850.883815102364	847.1870350167934	3642.3367724885816	852.3820492883281	1238.4334757193872	3693.6645490992214	868.2757653526543	1302.340090782438	3541.1129866325878	796.8939376483681	1282.0400894340046	3539.465402072342	845.4987109470999	1258.2078085143287	3706.8369206444304	857.5366192424557	-110.39925046017082	3626.844965689418	751.2999296804763	-382.2668377832086	3569.6490429632577	731.6904321218877	-226.2778066311503	3448.6780670050075	681.5893863075585	-46.40137342337543	3688.233333586135	599.8846359912094	194.62382048069645	3729.54233551111	531.243032458803	362.25570084032887	3548.6425749717055	614.9287648786745	431.7398414580893	3515.948670180475	700.4718514267549	451.43943440124576	3516.9578520393193	712.830625627328	472.0943467170587	3444.2669219902336	626.8175703567847	-31.0966839291294	3518.494605629471	878.2982497696485	209.79774149997044	3475.6885201862356	907.0211683049754	356.0645681653883	3476.5689653891886	718.0432718874355	416.7787148535946	3509.318878284617	624.919552237232	452.0934974199652	3520.04561345027	624.0746590711951	455.8096496907258	3432.3563901662797	632.0035071939333
460	7.666666666666667	448.87205770912755	3713.500765933363	639.367594396299	846.5186160419139	3747.450961577739	649.2082157926188	1210.5176520425887	3722.516423692696	658.238762374346	1291.364404334458	3640.896595967137	649.391194674775	1286.2524071385283	3690.7777437213917	606.5814543575358	1284.349430360026	3810.0806683163532	738.348461144227	464.9453885345018	3631.5759041997303	850.9211303542842	846.5475692874526	3641.7977561065413	852.8290791429138	1238.992803204704	3695.7037570243915	870.1011083186534	1303.35726507101	3543.3401061870313	799.0354302500604	1281.7928272297033	3540.554864578408	846.1630509450688	1258.1725582755282	3706.864673765975	857.5648991649376	-109.8255316339173	3627.294559634788	751.5073978243867	-382.47164740646934	3571.7973164799764	732.4097091476943	-225.1128256306714	3449.7452692689358	682.0327867013993	-45.504068592140264	3692.062507271332	603.1979689818869	194.50406341647368	3729.4554721597747	531.2150281135138	362.6368626317864	3548.7285192398435	614.9798346926544	431.2126123946162	3517.110858518489	701.1700106544787	451.37486922131427	3516.2385782656643	713.8724668160959	472.5300644540653	3445.0948131861787	630.049171857827	-31.10718438598772	3518.5720253275963	878.3053802381837	211.19382810969873	3476.929535794439	907.6410543641573	355.77145424455597	3474.9927043064354	716.7164842927125	414.75514785445745	3510.4360394077485	625.4591859481659	451.8713027702149	3518.9740924201205	623.7987093536682	455.5746370124282	3431.4053677753336	631.0665244961109
461	7.683333333333334	449.37959003448907	3716.6547997799385	640.1882927524738	845.1789105204234	3747.502259039134	647.9573347842685	1209.3961486623548	3722.4243235324875	657.0601531610392	1289.831010639956	3636.7135816788004	648.1191667351891	1286.2344604112993	3690.544934850945	606.4555429214904	1284.6859537288476	3811.3569674722394	737.7402247918945	464.985670133741	3631.6278878324692	850.9702568128405	845.7348916641951	3641.9184771659357	852.0344948811165	1238.2258488051361	3695.37403363049	869.8220349107088	1303.102971925324	3542.172514037413	799.3728902123788	1282.3339087496772	3540.79943188723	846.3789508373509	1258.188436671266	3706.8930677624826	857.5830459502736	-109.91602472981675	3627.3072037352786	751.5212073123851	-382.39044169130597	3571.8907460224914	732.4367810487737	-224.72997998770595	3450.0843373046323	682.182640601771	-44.93803290246038	3693.422329029644	604.4636839936218	194.4089506625272	3727.7509206746486	530.7727256380814	362.78294896700805	3548.6729491369697	614.9624280756868	431.3258600402909	3519.4022507727304	703.3068968175367	451.3516164800512	3515.313143232984	715.2405696193239	473.004309086881	3446.5834844907195	633.3463860701447	-31.12486496414781	3518.6587361594193	878.272865638222	212.98291245478183	3478.471520615691	908.414342398929	354.7840502461714	3469.2067884005614	712.7686222619203	412.98463470498587	3509.579355262342	625.2831573323488	451.4109695489568	3515.513708112946	622.964323257636	455.5459145019452	3431.279704329534	630.9389411674773
462	7.7	449.98907433383107	3718.3994885541824	640.5495475950808	845.0520361233496	3750.1901424353982	648.1829017520562	1208.3395210844594	3722.199844677082	656.3185544457725	1288.1274115173246	3631.7701446554315	646.6119762062912	1286.1718335004643	3690.391409845274	606.393605160567	1286.7421519605007	3816.692980727304	740.3260509989303	464.8993411858445	3631.582849393862	850.9681206700886	845.3878500599002	3642.4813999575904	850.9755464594364	1237.090167208567	3692.99386025182	867.8048354628547	1302.6426600757854	3541.245684636227	798.3016589428978	1283.4019872641627	3540.4308662196772	846.2565322656006	1258.2108605076917	3706.851965335924	857.5699657635886	-110.12139078619134	3627.2526969116934	751.5192702869188	-381.96403914856967	3571.729405900317	731.9198100744891	-225.20217186188802	3450.344056173287	682.213882594751	-44.76442315949507	3693.370214904232	604.5011731441256	194.60278994863532	3723.79322167794	529.7499503637837	362.86017615247545	3548.547806887894	614.9168379090445	432.4219394218737	3522.63065975247	707.2002799431887	451.37985318974717	3514.779988243661	716.4820510495589	472.8759558602344	3446.060281293886	633.84375468878	-31.13578628445646	3518.628680431121	878.147809807101	214.28308049144695	3479.5385227485035	908.9740867822966	353.15746141440525	3459.19546030973	706.7922823704567	412.5007330875111	3507.59627153858	624.6599147412943	450.94737301990614	3511.570206033489	622.0868329405993	455.55283929256734	3431.414325745288	631.0717642436595
463	7.716666666666667	450.6900068330642	3718.1956175008104	640.2957107037118	846.2493704797549	3756.3621517934703	650.2601626137276	1207.2395387589836	3721.631058362948	656.4793201339054	1286.143302369257	3626.4887247222773	644.8924823984679	1286.1037142209586	3690.4164141259735	606.465772572475	1288.199932285974	3820.9628578712786	743.3519524232515	464.2422691058798	3631.1122691117994	850.7881042345165	845.774429628368	3642.827151458528	851.0755625495491	1235.4247291813094	3688.252315240023	863.8878005538625	1303.3189480677142	3543.5104539753265	797.5916770434885	1283.6932909985119	3540.651286444407	846.4182206554935	1258.196650050706	3706.7291311824465	857.5214466626364	-110.23621814963263	3627.2370474344098	751.5454346174406	-381.2162133496727	3571.9615549968826	730.7446627351227	-225.9989637805175	3451.8165476598183	682.5823283079865	-44.27215235661488	3692.5536691173293	604.019210727333	195.36371667512608	3718.4595494003725	528.4223575416818	362.8020332085644	3548.37190751452	614.8418714643741	433.71618078502223	3524.937837238831	711.1228881250336	451.4213037902016	3514.82883637079	717.1313223644833	471.9587753419123	3442.5236514861426	630.803250492231	-31.156501248921096	3518.5748013456778	878.0510955068441	214.8393121914076	3479.7173895423725	909.128497909273	351.5279927225177	3448.7375515731355	701.3251396443877	412.64520547073596	3503.946781549114	623.4067286007574	450.45197649897426	3507.592066380697	620.9961637291399	455.5165350452445	3431.476049514689	631.1807269420736
